<?xml version="1.0" encoding="utf-8"?>
<!-- Generator: Adobe Illustrator 22.0.1, SVG Export Plug-In . SVG Version: 6.00 Build 0)  -->
<svg version="1.1" id="Layer_1" xmlns="http://www.w3.org/2000/svg" xmlns:xlink="http://www.w3.org/1999/xlink" x="0px" y="0px"
	 viewBox="0 0 792 792" style="enable-background:new 0 0 792 792;" xml:space="preserve">
<style type="text/css">
	.st0{fill:#231F20;}
</style>
<g>
	<g>
		<path class="st0" d="M559.2,546.7c40.7,0,73.7,33,73.7,73.7s-33,73.7-73.7,73.7c-40.8,0-73.7-33-73.7-73.7
			C485.4,579.8,518.4,546.7,559.2,546.7z M264.3,546.7c40.7,0,73.7,33,73.7,73.7s-33,73.7-73.7,73.7s-73.7-33-73.7-73.7
			C190.6,579.8,223.6,546.7,264.3,546.7z M161.1,509.3v-88.5l-59-235.9h-59V96.5h147.4V185h560.2l-88.5,324.4H161.1V509.3z
			 M252.5,420.9h347.9l35.4-147.5H217.1L252.5,420.9z"/>
	</g>
</g>
</svg>
