<?xml version="1.0" encoding="utf-8"?>
<!-- Generator: Adobe Illustrator 22.0.1, SVG Export Plug-In . SVG Version: 6.00 Build 0)  -->
<svg version="1.1" id="Layer_1" xmlns="http://www.w3.org/2000/svg" xmlns:xlink="http://www.w3.org/1999/xlink" x="0px" y="0px"
	 viewBox="0 0 792 792" style="enable-background:new 0 0 792 792;" xml:space="preserve">
<style type="text/css">
	.st0{fill:#363636;}
</style>
<g>
	<g>
		<path class="st0" d="M133.6,109.8h525.7c27.9,0,55.7,34.9,55.7,69.7v433c0,34.8-27.9,69.7-55.7,69.7H133.6
			c-27.9,0-55.8-34.9-55.8-69.7v-433C77.9,144.7,105.8,109.8,133.6,109.8z M141.6,574.7c0,26.1,11,39.8,31.9,39.8h446.1
			c20.9,0,31.8-13.7,31.8-39.8V217.3L433.8,479.2c-19.7,24.6-51.7,24.6-71.4,0L141.6,217.3V574.7z M189.4,177.5l182,223.7
			c14.8,18.4,38.8,18.4,53.5,0l194.6-223.7H189.4z"/>
	</g>
</g>
</svg>
