<?xml version="1.0" encoding="utf-8"?>
<!-- Generator: Adobe Illustrator 22.0.1, SVG Export Plug-In . SVG Version: 6.00 Build 0)  -->
<svg version="1.1" id="Layer_1" xmlns="http://www.w3.org/2000/svg" xmlns:xlink="http://www.w3.org/1999/xlink" x="0px" y="0px"
	 viewBox="0 0 792 792" style="enable-background:new 0 0 792 792;" xml:space="preserve">
<style type="text/css">
	.st0{fill:#231F20;}
</style>
<path class="st0" d="M586.9,609.4c1.7,4,2.5,8,2.5,12.1c0,5.7-1.5,11-4.5,15.9s-7.2,8.7-12.7,11.3l-25.5,11.9
	c-9.9,4.5-19.9,7.8-29.9,9.8s-20.1,3.1-30.2,3.1c-16.4,0-32.6-2.7-48.6-8.2c-16-5.4-31.3-13.2-45.9-23.4
	c-14.6-10.1-28.3-22.4-41.1-36.8c-12.8-14.4-24.3-30.4-34.4-48.2c-6.5-9.8-13.2-21-20.3-33.7c-6-10.7-12.9-23.6-20.6-38.5
	c-7.8-15-15.6-31.6-23.5-49.8c-8.1-18.3-14.5-34.2-19.2-47.9c-4.7-13.6-8.4-25-11-34c-3-10.5-5.1-19.6-6.2-27.1
	c-4.2-14-7.2-27.9-9.2-41.7c-1.9-13.8-2.9-27.5-2.9-41.1c0-17.7,1.8-34.8,5.3-51.1c3.6-16.4,9-31.6,16.4-45.7
	c7.4-14.1,16.7-26.7,28-37.8c11.3-11.1,24.7-20.2,40.1-27.2l25.1-11.6c4-1.7,8-2.5,11.9-2.5c5.6,0,10.8,1.5,15.6,4.7
	c4.8,3.1,8.4,7.4,10.9,12.9l48.3,109.8c1.7,4,2.5,7.9,2.5,11.9c0,5.9-1.5,11.3-4.5,16.2c-3,5-7.2,8.7-12.7,11.2l-49.7,22.8
	c-6.6,3-11.6,7.5-15.1,13.3s-5.2,12.1-5.2,18.9c0,5.1,1,9.9,2.9,14.4l81.6,186.4c3.2,7.2,7.6,12.4,13.3,15.8
	c5.6,3.4,11.8,5.1,18.4,5.1c4.5,0,9.1-1,13.8-3.1l49.7-22.9c3.9-1.7,7.9-2.5,11.8-2.5c5.5,0,10.7,1.5,15.6,4.6
	c4.9,3.1,8.5,7.4,11,12.8L586.9,609.4z"/>
</svg>
