<?xml version="1.0" encoding="utf-8"?>
<!-- Generator: Adobe Illustrator 22.0.1, SVG Export Plug-In . SVG Version: 6.00 Build 0)  -->
<svg version="1.1" id="Layer_1" xmlns="http://www.w3.org/2000/svg" xmlns:xlink="http://www.w3.org/1999/xlink" x="0px" y="0px"
	 viewBox="-267.995 -357.995 612 792" enable-background="new -267.995 -357.995 612 792" xml:space="preserve">
<g>
	<g>
		<path fill="#363636" d="M55.19,52.456c4.069,0,7.369,3.302,7.369,7.372c0,4.07-3.3,7.368-7.369,7.368
			c-4.075,0-7.374-3.298-7.374-7.368C47.816,55.758,51.115,52.456,55.19,52.456z M25.703,52.456c4.071,0,7.373,3.302,7.373,7.372
			c0,4.07-3.302,7.368-7.373,7.368c-4.07,0-7.371-3.298-7.371-7.368C18.332,55.758,21.633,52.456,25.703,52.456z M15.384,48.714
			v-8.845L9.485,16.277H3.589V7.431h14.743v8.846h56.022l-8.846,32.437H15.384z M24.525,39.869h34.791l3.538-14.746H20.986
			L24.525,39.869z"/>
	</g>
</g>
</svg>
