<?xml version="1.0" encoding="utf-8"?>
<!-- Generator: Adobe Illustrator 22.0.1, SVG Export Plug-In . SVG Version: 6.00 Build 0)  -->
<svg version="1.1" id="Layer_1" xmlns="http://www.w3.org/2000/svg" xmlns:xlink="http://www.w3.org/1999/xlink" x="0px" y="0px"
	 viewBox="-267.995 -357.995 612 792" enable-background="new -267.995 -357.995 612 792" xml:space="preserve">
<g>
	<g>
		<path fill="#363636" d="M12.189-91.34h52.572c2.785,0,5.575,3.487,5.575,6.97v43.296c0,3.483-2.79,6.97-5.575,6.97H12.189
			c-2.786,0-5.576-3.488-5.576-6.97V-84.37C6.613-87.852,9.403-91.34,12.189-91.34z M12.986-44.852c0,2.611,1.097,3.982,3.186,3.982
			h44.606c2.089,0,3.185-1.371,3.185-3.982v-35.739L42.209-54.401c-1.969,2.463-5.166,2.463-7.136,0L12.986-80.592V-44.852z
			 M17.765-84.575L35.964-62.2c1.48,1.843,3.875,1.843,5.353,0l19.461-22.375H17.765z"/>
	</g>
</g>
</svg>
